<?xml version="1.0" standalone="no"?>
<!DOCTYPE svg PUBLIC "-//W3C//DTD SVG 20010904//EN"
 "http://www.w3.org/TR/2001/REC-SVG-20010904/DTD/svg10.dtd">
<svg version="1.0" xmlns="http://www.w3.org/2000/svg"
 width="576.000000pt" height="576.000000pt" viewBox="0 0 576.000000 576.000000"
 preserveAspectRatio="xMidYMid meet">
<metadata>
Created by potrace 1.11, written by Peter Selinger 2001-2013
</metadata>
<g transform="translate(0.000000,576.000000) scale(0.100000,-0.100000)"
fill="#000000" stroke="none">
<path d="M1747 5114 c-2 -2 -30 -6 -63 -9 -32 -3 -102 -14 -154 -26 -52 -11
-105 -22 -118 -25 -73 -15 -424 -162 -442 -185 -3 -3 -21 -14 -40 -24 -151
-77 -419 -301 -520 -434 -14 -18 -30 -38 -37 -45 -19 -21 -124 -177 -134 -200
-5 -12 -22 -45 -38 -74 -16 -29 -44 -90 -61 -135 -18 -45 -36 -91 -40 -102 -5
-11 -12 -33 -16 -50 -4 -16 -8 -34 -10 -40 -23 -86 -44 -180 -49 -220 -3 -27
-9 -72 -13 -100 -8 -61 -8 -401 1 -470 7 -62 25 -161 31 -183 3 -10 7 -28 10
-42 4 -20 19 -74 40 -145 7 -22 18 -51 27 -67 5 -10 9 -22 9 -27 0 -5 12 -35
27 -67 15 -33 27 -61 28 -64 11 -34 105 -197 142 -246 13 -17 23 -36 23 -42 0
-6 3 -12 8 -14 4 -1 23 -23 42 -48 75 -97 192 -219 285 -295 33 -28 65 -55 71
-60 6 -6 54 -38 106 -73 102 -67 100 -64 98 -149 0 -10 0 -34 1 -53 0 -19 0
-39 0 -45 0 -5 0 -46 0 -90 0 -44 0 -89 -1 -100 -5 -124 -3 -225 3 -225 5 0 6
-4 3 -8 -14 -23 -4 -178 13 -210 7 -13 29 -35 51 -51 33 -24 47 -28 104 -27
36 1 66 -1 66 -4 0 -3 31 -3 70 1 110 10 168 69 170 172 0 23 1 50 1 60 0 9 0
46 0 82 0 36 0 71 0 78 0 6 -1 42 -2 79 -1 38 0 70 3 73 2 3 2 24 -1 48 -3 23
-5 57 -3 75 3 31 5 33 30 27 15 -4 36 -8 47 -10 11 -2 31 -6 45 -9 14 -3 45
-9 70 -12 25 -3 52 -7 60 -9 14 -4 223 -18 245 -16 6 0 41 3 78 6 l69 7 -2
-39 c-1 -21 -1 -40 -1 -43 5 -15 5 -160 1 -160 -6 0 -4 -158 3 -248 9 -101 57
-153 150 -158 27 -1 51 -4 53 -7 3 -2 22 -1 42 3 21 4 47 3 58 0 30 -11 106
24 138 63 23 29 30 49 35 104 3 37 4 91 1 120 -3 29 -3 60 0 69 4 10 3 37 0
61 -4 24 -4 46 0 48 4 3 4 22 0 42 -3 21 -3 50 1 64 3 15 3 32 -1 38 -3 7 -4
32 0 56 4 25 4 45 0 45 -4 0 -5 10 -3 23 4 18 17 28 56 42 82 29 245 109 332
164 287 179 550 308 750 368 28 8 62 20 77 25 15 6 28 9 30 8 2 -1 15 3 31 9
15 6 38 13 50 15 12 3 32 7 45 10 41 11 66 16 106 22 22 3 44 7 47 10 4 2 31
6 61 9 30 3 66 8 79 10 19 4 221 17 264 17 6 0 33 -1 60 -1 28 -1 78 0 111 2
l62 3 45 -86 c25 -47 56 -105 69 -130 13 -25 25 -47 28 -50 6 -6 18 -27 71
-127 37 -70 70 -131 119 -218 9 -16 38 -70 65 -120 27 -49 59 -107 72 -127 13
-21 23 -41 23 -45 0 -4 24 -50 54 -102 63 -113 85 -152 155 -283 51 -95 96
-146 129 -150 9 0 31 -2 47 -4 67 -6 125 33 153 102 10 24 12 297 9 1320 -2
709 -7 1304 -11 1322 -26 113 -86 282 -113 313 -7 9 -10 19 -6 22 3 4 1 7 -5
7 -7 0 -12 4 -12 10 0 36 -187 251 -283 324 -143 109 -328 193 -507 231 -76
16 -161 22 -425 30 -93 3 -179 7 -190 9 -11 1 -45 6 -75 11 -30 4 -64 9 -75
11 -11 3 -36 7 -55 10 -111 17 -395 101 -487 144 -24 11 -46 20 -49 20 -11 0
-227 109 -279 140 -27 17 -58 33 -67 37 -10 3 -18 9 -18 14 0 5 -7 9 -15 9 -8
0 -15 5 -15 10 0 6 -6 10 -13 10 -8 0 -22 9 -32 20 -10 11 -22 20 -27 20 -5 0
-24 11 -41 24 -18 13 -54 36 -82 51 -27 15 -54 31 -60 36 -5 5 -17 9 -27 9
-10 0 -18 4 -18 8 0 14 -286 124 -353 136 -16 3 -43 9 -60 15 -33 10 -121 27
-198 37 -49 7 -406 13 -412 8z m2968 -1689 c92 -28 156 -110 161 -208 4 -98
-35 -173 -114 -221 -115 -70 -275 -24 -338 97 -22 43 -26 137 -8 191 8 23 33
61 56 84 64 65 149 85 243 57z m722 -1027 c4 -75 4 -102 3 -160 -1 -38 2 -72
5 -78 3 -5 1 -10 -5 -10 -6 0 -9 -4 -6 -9 6 -8 6 -31 7 -236 0 -66 0 -124 0
-130 0 -5 0 -19 -1 -30 -1 -11 -1 -47 -1 -80 0 -33 0 -79 -2 -103 -1 -23 0
-42 3 -42 3 0 4 -18 2 -40 -2 -22 -8 -37 -13 -34 -5 3 -7 9 -4 14 3 4 1 10 -3
12 -5 1 -44 68 -87 148 -44 80 -92 168 -107 195 -16 28 -36 66 -46 85 -9 19
-20 37 -24 38 -5 2 -8 12 -8 22 0 10 -4 20 -8 22 -4 2 -29 41 -54 88 l-46 86
77 37 c77 37 132 67 141 78 3 3 25 19 50 37 25 17 63 47 85 67 46 41 42 38 42
23z"/>
</g>
</svg>
